<?xml version="1.0" encoding="UTF-8" standalone="no"?>
<!-- Created with Inkscape (http://www.inkscape.org/) -->

<svg
   xmlns:dc="http://purl.org/dc/elements/1.1/"
   xmlns:cc="http://creativecommons.org/ns#"
   xmlns:rdf="http://www.w3.org/1999/02/22-rdf-syntax-ns#"
   xmlns:svg="http://www.w3.org/2000/svg"
   xmlns="http://www.w3.org/2000/svg"
   xmlns:sodipodi="http://sodipodi.sourceforge.net/DTD/sodipodi-0.dtd"
   xmlns:inkscape="http://www.inkscape.org/namespaces/inkscape"
   width="297mm"
   height="210mm"
   viewBox="0 0 297 210"
   version="1.1"
   id="svg8"
   inkscape:version="0.92.1 r"
   sodipodi:docname="endocytos.svg"
   inkscape:export-filename="/home/konstantin/endocytoze.png"
   inkscape:export-xdpi="100"
   inkscape:export-ydpi="100">
  <defs
     id="defs2" />
  <sodipodi:namedview
     id="base"
     pagecolor="#ffffff"
     bordercolor="#666666"
     borderopacity="1.0"
     inkscape:pageopacity="0.0"
     inkscape:pageshadow="2"
     inkscape:zoom="0.7"
     inkscape:cx="605.53751"
     inkscape:cy="466.11836"
     inkscape:document-units="mm"
     inkscape:current-layer="layer1"
     showgrid="true"
     inkscape:window-width="1600"
     inkscape:window-height="847"
     inkscape:window-x="0"
     inkscape:window-y="0"
     inkscape:window-maximized="1"
     showguides="true">
    <inkscape:grid
       type="xygrid"
       id="grid4576" />
  </sodipodi:namedview>
  <metadata
     id="metadata5">
    <rdf:RDF>
      <cc:Work
         rdf:about="">
        <dc:format>image/svg+xml</dc:format>
        <dc:type
           rdf:resource="http://purl.org/dc/dcmitype/StillImage" />
        <dc:title></dc:title>
      </cc:Work>
    </rdf:RDF>
  </metadata>
  <g
     inkscape:label="Layer 1"
     inkscape:groupmode="layer"
     id="layer1"
     transform="translate(0,-87)">
    <ellipse
       style="opacity:1;fill:#ffffff;fill-opacity:0.98809521;fill-rule:nonzero;stroke:#000000;stroke-width:0.79374999;stroke-linecap:round;stroke-linejoin:round;stroke-miterlimit:4;stroke-dasharray:none;stroke-dashoffset:0;stroke-opacity:1"
       id="path4488"
       cx="57.452377"
       cy="145.99852"
       rx="34.017857"
       ry="34.58482" />
    <circle
       style="opacity:1;fill:#800000;fill-opacity:0.98809521;fill-rule:nonzero;stroke:none;stroke-width:0.79374999;stroke-linecap:round;stroke-linejoin:round;stroke-miterlimit:4;stroke-dasharray:none;stroke-dashoffset:0;stroke-opacity:1"
       id="path4492"
       cx="57.830357"
       cy="159.0387"
       r="12.851191" />
    <ellipse
       style="opacity:1;fill:#ffcc00;fill-opacity:0.98809521;fill-rule:nonzero;stroke:#000000;stroke-width:0.79374999;stroke-linecap:round;stroke-linejoin:round;stroke-miterlimit:4;stroke-dasharray:none;stroke-dashoffset:0;stroke-opacity:1"
       id="path4494"
       cx="72.382446"
       cy="133.71429"
       rx="5.4806542"
       ry="5.6696429" />
    <ellipse
       style="opacity:1;fill:#280b0b;fill-opacity:0.98809521;fill-rule:nonzero;stroke:none;stroke-width:0.43022332;stroke-linecap:round;stroke-linejoin:round;stroke-miterlimit:4;stroke-dasharray:none;stroke-dashoffset:0;stroke-opacity:1"
       id="path4496"
       cx="55.751492"
       cy="106.689"
       rx="2.8348212"
       ry="3.2127974" />
    <text
       xml:space="preserve"
       style="font-style:normal;font-weight:normal;font-size:11.90625px;line-height:6.61458302px;font-family:sans-serif;letter-spacing:0px;word-spacing:0px;fill:#000000;fill-opacity:1;stroke:none;stroke-width:0.26458332px;stroke-linecap:butt;stroke-linejoin:miter;stroke-opacity:1"
       x="63.122021"
       y="105.36607"
       id="text4500"><tspan
         sodipodi:role="line"
         id="tspan4498"
         x="63.122021"
         y="105.36607"
         style="stroke-width:0.26458332px">1</tspan></text>
    <text
       xml:space="preserve"
       style="font-style:normal;font-weight:normal;font-size:11.90625px;line-height:6.61458302px;font-family:sans-serif;letter-spacing:0px;word-spacing:0px;fill:#000000;fill-opacity:1;stroke:none;stroke-width:0.26458332px;stroke-linecap:butt;stroke-linejoin:miter;stroke-opacity:1"
       x="92.604172"
       y="119.72916"
       id="text4504"><tspan
         sodipodi:role="line"
         id="tspan4502"
         x="92.604172"
         y="119.72916"
         style="stroke-width:0.26458332px">2</tspan></text>
    <path
       style="fill:none;fill-rule:evenodd;stroke:#000000;stroke-width:0.26458332px;stroke-linecap:butt;stroke-linejoin:miter;stroke-opacity:1"
       d="m 87.690475,128.42262 7.9375,-8.69345"
       id="path4506"
       inkscape:connector-curvature="0" />
    <text
       xml:space="preserve"
       style="font-style:normal;font-weight:normal;font-size:11.90625px;line-height:6.61458302px;font-family:sans-serif;letter-spacing:0px;word-spacing:0px;fill:#000000;fill-opacity:1;stroke:none;stroke-width:0.26458332px;stroke-linecap:butt;stroke-linejoin:miter;stroke-opacity:1"
       x="79.375"
       y="140.13988"
       id="text4529"><tspan
         sodipodi:role="line"
         id="tspan4527"
         x="79.375"
         y="140.13988"
         style="stroke-width:0.26458332px">3</tspan></text>
    <path
       style="opacity:1;fill:#ffffff;fill-opacity:0.98809521;fill-rule:nonzero;stroke:#000000;stroke-width:0.79374999;stroke-linecap:round;stroke-linejoin:round;stroke-miterlimit:4;stroke-dasharray:none;stroke-dashoffset:0;stroke-opacity:1"
       d="m 188.98809,145.24257 c 0,19.10067 -15.23032,34.58482 -34.01786,34.58482 -18.78754,0 -34.01786,-15.48415 -34.01786,-34.58482 0,-13.07002 7.13123,-24.4467 17.65371,-30.32771 4.85518,-2.71357 10.43236,4.05837 16.36415,4.05837 5.88011,0 11.41176,-6.79872 16.23709,-4.12903 10.59209,5.86024 17.78077,17.27581 17.78077,30.39837 z"
       id="path4488-9"
       inkscape:connector-curvature="0"
       sodipodi:nodetypes="sssssss" />
    <circle
       style="opacity:1;fill:#800000;fill-opacity:0.98809521;fill-rule:nonzero;stroke:none;stroke-width:0.79374999;stroke-linecap:round;stroke-linejoin:round;stroke-miterlimit:4;stroke-dasharray:none;stroke-dashoffset:0;stroke-opacity:1"
       id="path4492-7"
       cx="155.34821"
       cy="158.28275"
       r="12.851191" />
    <ellipse
       style="opacity:1;fill:#ffcc00;fill-opacity:0.98809521;fill-rule:nonzero;stroke:#000000;stroke-width:0.79374999;stroke-linecap:round;stroke-linejoin:round;stroke-miterlimit:4;stroke-dasharray:none;stroke-dashoffset:0;stroke-opacity:1"
       id="path4494-5"
       cx="169.9003"
       cy="132.95834"
       rx="5.4806547"
       ry="5.6696429" />
    <ellipse
       style="opacity:1;fill:#280b0b;fill-opacity:0.98809521;fill-rule:nonzero;stroke:none;stroke-width:0.43022332;stroke-linecap:round;stroke-linejoin:round;stroke-miterlimit:4;stroke-dasharray:none;stroke-dashoffset:0;stroke-opacity:1"
       id="path4496-3"
       cx="154.78123"
       cy="113.87055"
       rx="2.8348212"
       ry="3.2127974" />
    <text
       xml:space="preserve"
       style="font-style:normal;font-weight:normal;font-size:11.90625px;line-height:6.61458349px;font-family:sans-serif;letter-spacing:0px;word-spacing:0px;fill:#000000;fill-opacity:1;stroke:none;stroke-width:0.26458332px;stroke-linecap:butt;stroke-linejoin:miter;stroke-opacity:1"
       x="160.63986"
       y="110.65775"
       id="text4500-8"><tspan
         sodipodi:role="line"
         id="tspan4498-8"
         x="160.63986"
         y="110.65775"
         style="stroke-width:0.26458332px">1</tspan></text>
    <text
       xml:space="preserve"
       style="font-style:normal;font-weight:normal;font-size:11.90625px;line-height:6.61458349px;font-family:sans-serif;letter-spacing:0px;word-spacing:0px;fill:#000000;fill-opacity:1;stroke:none;stroke-width:0.26458332px;stroke-linecap:butt;stroke-linejoin:miter;stroke-opacity:1"
       x="190.12202"
       y="118.97321"
       id="text4504-3"><tspan
         sodipodi:role="line"
         id="tspan4502-1"
         x="190.12202"
         y="118.97321"
         style="stroke-width:0.26458332px">2</tspan></text>
    <path
       style="fill:none;fill-rule:evenodd;stroke:#000000;stroke-width:0.26458332px;stroke-linecap:butt;stroke-linejoin:miter;stroke-opacity:1"
       d="m 185.20833,127.66667 7.9375,-8.69345"
       id="path4506-8"
       inkscape:connector-curvature="0" />
    <text
       xml:space="preserve"
       style="font-style:normal;font-weight:normal;font-size:11.90625px;line-height:6.61458349px;font-family:sans-serif;letter-spacing:0px;word-spacing:0px;fill:#000000;fill-opacity:1;stroke:none;stroke-width:0.26458332px;stroke-linecap:butt;stroke-linejoin:miter;stroke-opacity:1"
       x="176.89285"
       y="139.38393"
       id="text4529-9"><tspan
         sodipodi:role="line"
         id="tspan4527-6"
         x="176.89285"
         y="139.38393"
         style="stroke-width:0.26458332px">3</tspan></text>
    <path
       style="opacity:1;fill:#ffffff;fill-opacity:0.98809521;fill-rule:nonzero;stroke:#000000;stroke-width:0.79374999;stroke-linecap:round;stroke-linejoin:round;stroke-miterlimit:4;stroke-dasharray:none;stroke-dashoffset:0;stroke-opacity:1"
       d="m 285.75,143.54167 c 0,19.10067 -15.23031,34.58482 -34.01786,34.58482 -18.78754,0 -34.01785,-15.48415 -34.01785,-34.58482 0,-12.67723 5.66675,-25.99941 16.71431,-29.78271 18.43747,-6.31402 17.11456,-1.02235 12.70575,0.41708 -1.50035,0.48985 -2.20391,2.09084 -2.4408,3.03262 -1.46587,5.8278 2.82249,10.647 5.90466,10.647 3.18052,0 9.82009,-1.46743 10.58675,-6.40701 0.30527,-1.96684 -1.7043,-6.06621 -3.9614,-6.55075 -6.12562,-1.31502 -8.57676,-7.62876 10.20202,-2.48062 11.15289,3.05753 18.32442,18.56568 18.32442,31.12439 z"
       id="path4488-8"
       inkscape:connector-curvature="0"
       sodipodi:nodetypes="sssssssssss" />
    <circle
       style="opacity:1;fill:#800000;fill-opacity:0.98809521;fill-rule:nonzero;stroke:none;stroke-width:0.79374999;stroke-linecap:round;stroke-linejoin:round;stroke-miterlimit:4;stroke-dasharray:none;stroke-dashoffset:0;stroke-opacity:1"
       id="path4492-8"
       cx="252.11012"
       cy="156.58186"
       r="12.851191" />
    <ellipse
       style="opacity:1;fill:#ffcc00;fill-opacity:0.98809521;fill-rule:nonzero;stroke:#000000;stroke-width:0.79374999;stroke-linecap:round;stroke-linejoin:round;stroke-miterlimit:4;stroke-dasharray:none;stroke-dashoffset:0;stroke-opacity:1"
       id="path4494-8"
       cx="266.6622"
       cy="131.25745"
       rx="5.4806547"
       ry="5.6696429" />
    <ellipse
       style="opacity:1;fill:#280b0b;fill-opacity:0.98809521;fill-rule:nonzero;stroke:none;stroke-width:0.43022332;stroke-linecap:round;stroke-linejoin:round;stroke-miterlimit:4;stroke-dasharray:none;stroke-dashoffset:0;stroke-opacity:1"
       id="path4496-9"
       cx="251.54317"
       cy="123.50894"
       rx="2.8348212"
       ry="3.2127974" />
    <text
       xml:space="preserve"
       style="font-style:normal;font-weight:normal;font-size:11.90625px;line-height:6.61458349px;font-family:sans-serif;letter-spacing:0px;word-spacing:0px;fill:#000000;fill-opacity:1;stroke:none;stroke-width:0.26458332px;stroke-linecap:butt;stroke-linejoin:miter;stroke-opacity:1"
       x="286.88394"
       y="117.27232"
       id="text4504-6"><tspan
         sodipodi:role="line"
         id="tspan4502-4"
         x="286.88394"
         y="117.27232"
         style="stroke-width:0.26458332px">2</tspan></text>
    <path
       style="fill:none;fill-rule:evenodd;stroke:#000000;stroke-width:0.26458332px;stroke-linecap:butt;stroke-linejoin:miter;stroke-opacity:1"
       d="m 281.97024,125.96577 7.9375,-8.69345"
       id="path4506-3"
       inkscape:connector-curvature="0" />
    <text
       xml:space="preserve"
       style="font-style:normal;font-weight:normal;font-size:11.90625px;line-height:6.61458349px;font-family:sans-serif;letter-spacing:0px;word-spacing:0px;fill:#000000;fill-opacity:1;stroke:none;stroke-width:0.26458332px;stroke-linecap:butt;stroke-linejoin:miter;stroke-opacity:1"
       x="273.65479"
       y="137.68303"
       id="text4529-0"><tspan
         sodipodi:role="line"
         id="tspan4527-3"
         x="273.65479"
         y="137.68303"
         style="stroke-width:0.26458332px">3</tspan></text>
    <ellipse
       style="opacity:1;fill:#ffffff;fill-opacity:0.98809521;fill-rule:nonzero;stroke:#000000;stroke-width:0.79374999;stroke-linecap:round;stroke-linejoin:round;stroke-miterlimit:4;stroke-dasharray:none;stroke-dashoffset:0;stroke-opacity:1"
       id="path4488-0"
       cx="59.72023"
       cy="251.07591"
       rx="34.017857"
       ry="34.58482" />
    <circle
       style="opacity:1;fill:#800000;fill-opacity:0.98809521;fill-rule:nonzero;stroke:none;stroke-width:0.79374999;stroke-linecap:round;stroke-linejoin:round;stroke-miterlimit:4;stroke-dasharray:none;stroke-dashoffset:0;stroke-opacity:1"
       id="path4492-9"
       cx="60.098221"
       cy="264.11609"
       r="12.851191" />
    <ellipse
       style="opacity:1;fill:#ffcc00;fill-opacity:0.98809521;fill-rule:nonzero;stroke:#000000;stroke-width:0.79374999;stroke-linecap:round;stroke-linejoin:round;stroke-miterlimit:4;stroke-dasharray:none;stroke-dashoffset:0;stroke-opacity:1"
       id="path4494-2"
       cx="69.736603"
       cy="236.52382"
       rx="5.4806547"
       ry="5.6696429" />
    <ellipse
       style="opacity:1;fill:#280b0b;fill-opacity:0.98809521;fill-rule:nonzero;stroke:none;stroke-width:0.43022332;stroke-linecap:round;stroke-linejoin:round;stroke-miterlimit:4;stroke-dasharray:none;stroke-dashoffset:0;stroke-opacity:1"
       id="path4496-5"
       cx="56.129471"
       cy="234.06699"
       rx="2.8348212"
       ry="3.2127974" />
    <text
       xml:space="preserve"
       style="font-style:normal;font-weight:normal;font-size:11.90625px;line-height:6.61458349px;font-family:sans-serif;letter-spacing:0px;word-spacing:0px;fill:#000000;fill-opacity:1;stroke:none;stroke-width:0.26458332px;stroke-linecap:butt;stroke-linejoin:miter;stroke-opacity:1"
       x="65.389877"
       y="210.44345"
       id="text4500-4"><tspan
         sodipodi:role="line"
         id="tspan4498-0"
         x="65.389877"
         y="210.44345"
         style="stroke-width:0.26458332px">1</tspan></text>
    <text
       xml:space="preserve"
       style="font-style:normal;font-weight:normal;font-size:11.90625px;line-height:6.61458349px;font-family:sans-serif;letter-spacing:0px;word-spacing:0px;fill:#000000;fill-opacity:1;stroke:none;stroke-width:0.26458332px;stroke-linecap:butt;stroke-linejoin:miter;stroke-opacity:1"
       x="94.87204"
       y="224.80655"
       id="text4504-5"><tspan
         sodipodi:role="line"
         id="tspan4502-9"
         x="94.87204"
         y="224.80655"
         style="stroke-width:0.26458332px">2</tspan></text>
    <path
       style="fill:none;fill-rule:evenodd;stroke:#000000;stroke-width:0.26458332px;stroke-linecap:butt;stroke-linejoin:miter;stroke-opacity:1"
       d="m 89.95834,233.5 7.9375,-8.69345"
       id="path4506-4"
       inkscape:connector-curvature="0" />
    <text
       xml:space="preserve"
       style="font-style:normal;font-weight:normal;font-size:11.90625px;line-height:6.61458349px;font-family:sans-serif;letter-spacing:0px;word-spacing:0px;fill:#000000;fill-opacity:1;stroke:none;stroke-width:0.26458332px;stroke-linecap:butt;stroke-linejoin:miter;stroke-opacity:1"
       x="81.642868"
       y="245.21725"
       id="text4529-6"><tspan
         sodipodi:role="line"
         id="tspan4527-9"
         x="81.642868"
         y="245.21725"
         style="stroke-width:0.26458332px">3</tspan></text>
    <circle
       style="opacity:1;fill:none;fill-opacity:0.98809521;fill-rule:nonzero;stroke:#000000;stroke-width:0.79374999;stroke-linecap:round;stroke-linejoin:round;stroke-miterlimit:4;stroke-dasharray:none;stroke-dashoffset:0;stroke-opacity:1"
       id="path4632"
       cx="56.318451"
       cy="233.87798"
       r="7.9375" />
    <text
       xml:space="preserve"
       style="font-style:normal;font-weight:normal;font-size:11.90625px;line-height:6.61458302px;font-family:sans-serif;letter-spacing:0px;word-spacing:0px;fill:#000000;fill-opacity:1;stroke:none;stroke-width:0.26458332px;stroke-linecap:butt;stroke-linejoin:miter;stroke-opacity:1"
       x="40.821442"
       y="242.19345"
       id="text4636"><tspan
         sodipodi:role="line"
         id="tspan4634"
         x="40.821442"
         y="242.19345"
         style="stroke-width:0.26458332px">4</tspan></text>
    <ellipse
       style="opacity:1;fill:#ffffff;fill-opacity:0.98809521;fill-rule:nonzero;stroke:#000000;stroke-width:0.79374999;stroke-linecap:round;stroke-linejoin:round;stroke-miterlimit:4;stroke-dasharray:none;stroke-dashoffset:0;stroke-opacity:1"
       id="path4488-0-2"
       cx="154.97021"
       cy="251.0759"
       rx="34.017857"
       ry="34.58482" />
    <circle
       style="opacity:1;fill:#800000;fill-opacity:0.98809521;fill-rule:nonzero;stroke:none;stroke-width:0.79374999;stroke-linecap:round;stroke-linejoin:round;stroke-miterlimit:4;stroke-dasharray:none;stroke-dashoffset:0;stroke-opacity:1"
       id="path4492-9-4"
       cx="155.34821"
       cy="264.11609"
       r="12.851191" />
    <text
       xml:space="preserve"
       style="font-style:normal;font-weight:normal;font-size:11.90625px;line-height:6.61458349px;font-family:sans-serif;letter-spacing:0px;word-spacing:0px;fill:#000000;fill-opacity:1;stroke:none;stroke-width:0.26458332px;stroke-linecap:butt;stroke-linejoin:miter;stroke-opacity:1"
       x="160.63986"
       y="210.44345"
       id="text4500-4-5"><tspan
         sodipodi:role="line"
         id="tspan4498-0-4"
         x="160.63986"
         y="210.44345"
         style="stroke-width:0.26458332px">1</tspan></text>
    <text
       xml:space="preserve"
       style="font-style:normal;font-weight:normal;font-size:11.90625px;line-height:6.61458349px;font-family:sans-serif;letter-spacing:0px;word-spacing:0px;fill:#000000;fill-opacity:1;stroke:none;stroke-width:0.26458332px;stroke-linecap:butt;stroke-linejoin:miter;stroke-opacity:1"
       x="190.12201"
       y="224.80655"
       id="text4504-5-8"><tspan
         sodipodi:role="line"
         id="tspan4502-9-1"
         x="190.12201"
         y="224.80655"
         style="stroke-width:0.26458332px">2</tspan></text>
    <path
       style="fill:none;fill-rule:evenodd;stroke:#000000;stroke-width:0.26458332px;stroke-linecap:butt;stroke-linejoin:miter;stroke-opacity:1"
       d="m 185.20833,233.5 7.9375,-8.69345"
       id="path4506-4-2"
       inkscape:connector-curvature="0" />
    <path
       style="opacity:1;fill:#aa8800;fill-opacity:0.98809521;fill-rule:nonzero;stroke:#000000;stroke-width:0.90281981;stroke-linecap:round;stroke-linejoin:round;stroke-miterlimit:4;stroke-dasharray:none;stroke-dashoffset:0;stroke-opacity:1"
       d="m 170.41271,236.90179 c 0,2.32456 -3.58761,4.60311 -5.68703,6.04592 -1.83256,1.2594 -5.3931,-0.43082 -8.05457,-0.43082 -5.71051,0 -12.98564,-4.28527 -12.98564,-8.63891 0,-4.35364 4.62929,-7.88297 10.33981,-7.88297 5.71052,0 16.38743,6.55314 16.38743,10.90678 z"
       id="path4632-3"
       inkscape:connector-curvature="0"
       sodipodi:nodetypes="ssssss" />
    <text
       xml:space="preserve"
       style="font-style:normal;font-weight:normal;font-size:11.90625px;line-height:6.61458349px;font-family:sans-serif;letter-spacing:0px;word-spacing:0px;fill:#000000;fill-opacity:1;stroke:none;stroke-width:0.26458332px;stroke-linecap:butt;stroke-linejoin:miter;stroke-opacity:1"
       x="136.07143"
       y="242.19345"
       id="text4636-6"><tspan
         sodipodi:role="line"
         id="tspan4634-8"
         x="136.07143"
         y="242.19345"
         style="stroke-width:0.26458332px">4</tspan></text>
    <path
       style="opacity:1;fill:#2b0000;fill-opacity:0.98809521;fill-rule:nonzero;stroke:none;stroke-width:0.79374999;stroke-linecap:round;stroke-linejoin:round;stroke-miterlimit:4;stroke-dasharray:none;stroke-dashoffset:0;stroke-opacity:1"
       id="path4693"
       d="m 152.46775,229.44519 c -0.0326,0.0651 -0.14213,0.13761 -0.0978,0.19542 0.28084,0.36633 0.40218,-0.067 0.52854,0.37248 0.0934,0.32484 -0.19473,0.42787 0.10218,0.41286 0.34843,0.0462 -0.0517,-0.046 0.0597,0.13424 0.11464,0.18548 0.27475,-0.29593 0.0571,0.17282 1.2204,1.36944 -0.71627,3.09534 -1.93667,1.7259 v 0 c -0.0764,-0.006 -0.1743,0.036 -0.22908,-0.0176 -0.0579,-0.0566 -0.003,-0.16617 -0.0351,-0.2405 -0.0694,-0.1602 -0.26243,-0.25151 -0.27045,-0.4486 -0.60168,-0.61484 1.4e-4,0.12859 -0.22437,-0.59908 -0.0215,-0.0698 -0.14624,-0.0661 -0.1734,-0.13387 -0.0326,-0.0813 0.0568,-0.18567 0.0145,-0.26244 -0.0476,-0.0865 -0.17863,-0.0919 -0.24811,-0.16209 -0.0765,-0.0774 -0.12062,-0.1811 -0.18093,-0.27165 -0.6208,-1.8624 2.01302,-2.74034 2.63382,-0.87794 z"
       inkscape:connector-curvature="0" />
    <path
       style="opacity:1;fill:#2b0000;fill-opacity:0.98809521;fill-rule:nonzero;stroke:none;stroke-width:0.79374999;stroke-linecap:round;stroke-linejoin:round;stroke-miterlimit:4;stroke-dasharray:none;stroke-dashoffset:0;stroke-opacity:1"
       id="path4695"
       d="m 150.52834,233.82463 c -0.31546,0.31948 0.0759,0.65603 0.0459,0.77237 -0.0301,0.117 -0.17522,0.16639 -0.26284,0.24959 0,1.72613 -2.44111,1.72613 -2.44111,0 v 0 c -0.0495,-0.0832 -0.13704,-0.15347 -0.1484,-0.24959 -0.0109,-0.0922 0.0799,-0.17179 0.0876,-0.26428 0.0142,-0.1707 -0.0719,-0.35448 -0.12909,-0.50809 0,-2.0138 2.84794,-2.0138 2.84794,0 z"
       inkscape:connector-curvature="0" />
    <path
       style="opacity:1;fill:#2b0000;fill-opacity:0.98809521;fill-rule:nonzero;stroke:none;stroke-width:0.79374999;stroke-linecap:round;stroke-linejoin:round;stroke-miterlimit:4;stroke-dasharray:none;stroke-dashoffset:0;stroke-opacity:1"
       id="path4697"
       d="m 156.49671,235.33653 c -0.0899,0.0834 -0.0169,-0.006 0.0631,0.20339 0.006,0.0165 -0.0217,0.0357 -0.0135,0.0514 0.0265,0.0501 0.10113,0.0741 0.10952,0.13026 0.004,0.03 -0.11523,0.0264 -0.0853,0.0315 0.04,0.007 0.0793,-0.0172 0.11897,-0.0257 -0.0926,0.23845 -0.19515,0.40394 0.0896,0.0614 0.0305,-0.0366 -0.0884,0.0501 -0.10814,0.0935 -0.009,0.0202 0.0555,0.0336 0.0423,0.0515 -0.0315,0.0427 -0.1439,0.13141 -0.13826,0.0787 0.0101,-0.0941 0.10352,-0.15847 0.15528,-0.2377 -0.15901,0.37117 -0.23226,-0.11724 -0.17456,-0.0872 0.25809,0.13431 -0.15581,0.18664 0.15301,0.11932 1.77787,0.13663 1.58465,2.65092 -0.19322,2.51429 v 0 c -0.40732,0.22025 -0.0157,0.0842 -0.46627,-0.009 -0.10775,-0.0222 -0.22,0.003 -0.33,0.005 -0.14411,-0.0332 -0.28821,-0.0664 -0.43232,-0.0996 -0.052,-0.31636 0.024,-0.38783 -0.32598,-0.49167 -0.0888,-0.0264 -0.2114,0.0603 -0.27793,-0.004 -0.12517,-0.12133 0.0469,-0.53435 -0.33794,-0.63123 -0.0756,-0.0647 -0.18697,-0.10282 -0.22671,-0.19399 -0.0515,-0.11814 -0.0201,-0.25702 -0.026,-0.38576 -0.004,-0.0846 0.0317,-0.17708 -0.004,-0.25393 -0.0574,-0.1242 -0.21333,-0.1889 -0.26015,-0.31745 -0.0693,-0.19036 0.22998,-0.40861 0.0753,-0.6031 0,-1.83352 2.59299,-1.83352 2.59299,0 z"
       inkscape:connector-curvature="0" />
    <path
       style="opacity:1;fill:#2b0000;fill-opacity:0.98809521;fill-rule:nonzero;stroke:none;stroke-width:0.79374999;stroke-linecap:round;stroke-linejoin:round;stroke-miterlimit:4;stroke-dasharray:none;stroke-dashoffset:0;stroke-opacity:1"
       id="path4699"
       d="m 157.32496,228.57175 c 0.0582,0.0723 0.10896,0.15137 0.17463,0.217 0.0573,0.0573 0.13332,0.0931 0.19177,0.14919 0.0418,0.0401 0.0527,0.11638 0.10679,0.13722 0.10408,0.0401 0.22323,0.013 0.33309,0.0323 0.11977,0.0211 0.19269,0.0756 0.29468,0.1351 0.15971,0.25979 -0.0352,-0.0262 0.26829,0.27528 0.0455,0.0452 0.0523,0.14454 0.11573,0.15356 0.0824,0.0117 0.14725,-0.0801 0.22677,-0.10487 0.0232,-0.007 0.15428,0.0179 0.17628,0.0216 0.006,0.0151 0.0128,0.0302 0.0191,0.0454 1.84852,0.42708 1.24454,3.04129 -0.60398,2.61421 v 0 c -0.0833,0.003 -0.16665,0.006 -0.24998,0.008 -0.20499,-0.17317 -0.13843,-0.17386 -0.44541,-0.16183 -0.0908,0.004 -0.19063,0.0857 -0.26959,0.0407 -0.0976,-0.0556 -0.0874,-0.21485 -0.16992,-0.29118 -0.12925,-0.11959 -0.40717,0.0213 -0.4831,-0.21369 -0.0707,-0.0562 -0.13305,-0.1248 -0.21201,-0.16859 -0.21968,-0.12185 -0.40523,-0.0856 -0.59897,-0.28191 -0.0569,-0.0576 -0.0559,-0.15934 -0.11637,-0.21323 -0.0434,-0.0387 -0.11305,-0.0278 -0.16957,-0.0417 -1.66376,-0.99826 -0.25201,-3.35116 1.41174,-2.35291 z"
       inkscape:connector-curvature="0" />
    <text
       xml:space="preserve"
       style="font-style:normal;font-weight:normal;font-size:11.90625px;line-height:6.61458302px;font-family:sans-serif;letter-spacing:0px;word-spacing:0px;fill:#000000;fill-opacity:1;stroke:none;stroke-width:0.26458332px;stroke-linecap:butt;stroke-linejoin:miter;stroke-opacity:1"
       x="52.916664"
       y="191.16666"
       id="text4571"><tspan
         sodipodi:role="line"
         id="tspan4569"
         x="52.916664"
         y="191.16666"
         style="stroke-width:0.26458332px">I</tspan></text>
    <text
       xml:space="preserve"
       style="font-style:normal;font-weight:normal;font-size:11.90625px;line-height:6.61458302px;font-family:sans-serif;letter-spacing:0px;word-spacing:0px;fill:#000000;fill-opacity:1;stroke:none;stroke-width:0.26458332px;stroke-linecap:butt;stroke-linejoin:miter;stroke-opacity:1"
       x="153.19106"
       y="191.2204"
       id="text4575"><tspan
         sodipodi:role="line"
         id="tspan4573"
         x="153.19106"
         y="191.2204"
         style="stroke-width:0.26458332px">II</tspan></text>
    <text
       xml:space="preserve"
       style="font-style:normal;font-weight:normal;font-size:11.90625px;line-height:6.61458302px;font-family:sans-serif;letter-spacing:0px;word-spacing:0px;fill:#000000;fill-opacity:1;stroke:none;stroke-width:0.26458332px;stroke-linecap:butt;stroke-linejoin:miter;stroke-opacity:1"
       x="248.70833"
       y="191.2204"
       id="text4579"><tspan
         sodipodi:role="line"
         id="tspan4577"
         x="248.70833"
         y="191.2204"
         style="stroke-width:0.26458332px">III</tspan></text>
    <text
       xml:space="preserve"
       style="font-style:normal;font-weight:normal;font-size:11.90625px;line-height:6.61458302px;font-family:sans-serif;letter-spacing:0px;word-spacing:0px;fill:#000000;fill-opacity:1;stroke:none;stroke-width:0.26458332px;stroke-linecap:butt;stroke-linejoin:miter;stroke-opacity:1"
       x="58.208332"
       y="297"
       id="text4583"><tspan
         sodipodi:role="line"
         id="tspan4581"
         x="58.208332"
         y="297"
         style="stroke-width:0.26458332px">IV</tspan></text>
    <text
       xml:space="preserve"
       style="font-style:normal;font-weight:normal;font-size:11.90625px;line-height:6.61458302px;font-family:sans-serif;letter-spacing:0px;word-spacing:0px;fill:#000000;fill-opacity:1;stroke:none;stroke-width:0.26458332px;stroke-linecap:butt;stroke-linejoin:miter;stroke-opacity:1"
       x="153.45833"
       y="297"
       id="text4587"><tspan
         sodipodi:role="line"
         id="tspan4585"
         x="153.45833"
         y="297"
         style="stroke-width:0.26458332px">V</tspan></text>
  </g>
</svg>
